<mxfile host="65bd71144e">
    <diagram id="ALwmF8iOi-63a5edmhXK" name="Page-1">
        <mxGraphModel dx="1438" dy="500" grid="1" gridSize="10" guides="1" tooltips="1" connect="1" arrows="1" fold="1" page="1" pageScale="1" pageWidth="850" pageHeight="1100" math="0" shadow="0">
            <root>
                <mxCell id="0"/>
                <mxCell id="1" parent="0"/>
                <mxCell id="15" style="edgeStyle=none;html=1;entryX=0;entryY=0;entryDx=0;entryDy=0;fontSize=11;" edge="1" parent="1" source="2" target="12">
                    <mxGeometry relative="1" as="geometry"/>
                </mxCell>
                <mxCell id="2" value="L0 -&amp;nbsp;&amp;nbsp;VMWare Workstation - Type 2" style="pointerEvents=1;shadow=0;dashed=0;html=1;strokeColor=none;fillColor=#4495D1;labelPosition=center;verticalLabelPosition=bottom;verticalAlign=top;align=center;outlineConnect=0;shape=mxgraph.veeam.hyper_v_vmware_host;" vertex="1" parent="1">
                    <mxGeometry x="270" y="170" width="50" height="60" as="geometry"/>
                </mxCell>
                <mxCell id="8" style="edgeStyle=none;html=1;" edge="1" parent="1" source="7" target="2">
                    <mxGeometry relative="1" as="geometry"/>
                </mxCell>
                <mxCell id="11" style="edgeStyle=none;html=1;entryX=0.5;entryY=0;entryDx=0;entryDy=0;fontSize=20;" edge="1" parent="1" source="7" target="10">
                    <mxGeometry relative="1" as="geometry"/>
                </mxCell>
                <mxCell id="7" value="Host - Windows 11&amp;nbsp;" style="sketch=0;aspect=fixed;html=1;points=[];align=center;image;fontSize=12;image=img/lib/mscae/VirtualMachineWindows.svg;" vertex="1" parent="1">
                    <mxGeometry x="375" y="70" width="50" height="46" as="geometry"/>
                </mxCell>
                <mxCell id="9" value="Nested Virtualization Xen" style="text;html=1;align=center;verticalAlign=middle;resizable=0;points=[];autosize=1;strokeColor=none;fillColor=none;fontSize=20;" vertex="1" parent="1">
                    <mxGeometry x="275" y="20" width="250" height="40" as="geometry"/>
                </mxCell>
                <mxCell id="16" style="edgeStyle=none;html=1;entryX=1;entryY=0;entryDx=0;entryDy=0;fontSize=11;" edge="1" parent="1" source="10" target="12">
                    <mxGeometry relative="1" as="geometry"/>
                </mxCell>
                <mxCell id="10" value="L0 - Virtualbox - Type 2" style="shape=image;verticalLabelPosition=bottom;labelBackgroundColor=default;verticalAlign=top;aspect=fixed;imageAspect=0;image=data:image/png,iVBORw0KGgoAAAANSUhEUgAAAGQAAABkCAYAAABw4pVUAAAAAXNSR0IArs4c6QAAGBxJREFUeAHtnXlUU1mawKt7Tk/N1jOn+5yeme5zZvqPWfqcmelzZularc0qiyjuC5ZaKAok7LssagghYVGUXSk2QURAQFAIuKGyBTQRdwIqWmqJYsCVAEG7qr7p78ENLy8vyXsxAUQ9h3Pflvfu/X733m+77/nWW2/+vZHAGwnMYAk8HH7xTr9utBr/cHsGN3V6N61/UP9R/9CIon9oFIz+hkeVA8OjC6d37WdI7QDgJyjsft3z00YQmFCGRkGrGz2vHdKvA4A/myHNnz7NAICf9uueuwwM6TutgTA5PzzaMzA8KgKAn02fFr2iNekBeBt7uXZIf91E0CyjwtI1A4Ojt/uHRoPuA/zVKyqOqav2wAD8HIWn1Y3esyRkG8/1a3V66dOn8Iupa+Er8uQ+ne5XKCzt0OhjrsK++2gQ8ioOU3+4zfV32iH94IOhkfSB4eHfvCLimbxq3tfrf4vC6dfph7kK9M7Dp5BXUQ9OawLgD/PWUX+fr/SF1MJKuKl9xBlMv04/OjD4fG//s9F/nbwWT9MnaZ+O/ss4iFGuIHruP6SEPnuFjwEEAULKj5eKQJ65B7q/03IGo9XpXyCYR7rn/zFNxeW4avUPvfhvbLxWp/+eK4ir97SUkGct8TQLggAh5QeL3CEiMQsu3viOD5gf0b95MDLyvuMkME3uTJw5rU7/I1cQD3QjBmEeP3MRRFFbOQMhYN5fuIEC03HtluFenJ4/E51MPs4cXUiqzh5KiJ+7+ELm3mr47uEzgzDbLl+DT5Z58QbzrrMb+Ip3QOuFbsO96M80tz0jnExbnbnGjk5KaO84uxkJfJkwCvqeDVOC/Kas1ugcGQn0cpkoCtL2HIDV/hLWa9cFx4KiScULTP+r6GTa6swhCI+IBFbhIZzaxjOU8HB0fLDQnfW6+etDQZ5ZBHgN9vard7WA0xUdFHObgNHq9JzhvBJOpi3O3AOdnuqlawLYezERHlpMKGA0dZd4RBgJ2HldCAWh6ZzGRKA4Qsg9rJUrvDZBWX2TYRSam74Yx6efk2mLM3f/6TDV+KWexsJlE9pKny1w78kQJezwhJ2UgHEkbMsphfbxkUAXUtedPuraB4Mj4Lw2mDMQ8my8N/o39x7rTADTn0PfnhZO5mO9/p/5OnMo2KKDDTBvbRAnQaE/cf76bUowaGElZu1jVchoAKQUVALqjYRdxdT1ima12WegObw2KNbseYQzZ5U/7Np3yMiYoENg3Z4KJ9MWZ47NqyY90lJZWtdotpd2XP0WUgsqgT7KUF903r5P/cZXvN1I4GhhuYXIqBDLjb6HsCO/3Oi8uXoYvP8H3L3/SXEyHzwe+j1m5bQ6/Q+svcNM9LX8aLNNJmqILMMIBuobVNYIYdGGjazCjNyaRf0Gobw7fz11zWq/aAoCKnhSb4x5oaDNQWA7jmY2toXcg0tJyUo3Wn33wePf290VPH3u6rbrd7TN2iH9My6VIdeg9YLK8svV/pwFgALHUYV6AKeqmLQCo5gVm8DQElN33aQEhoLbWXwQOr+9xyrAwqqjnOuCz0J4qFewPqRd3Er9UOO5200hSUcS7Q6kTaWRtqk1cPp896M72ifNfMIeWHl07DDw98FiD4vCwKkFrSPxjlxevdh7cxKrsHB6Kqw+Bkm5ZdR5HGnmRhgTNE6BaOHdHnjCem9zUDASobkzoNyUelwbIFeAv1wRY38gak0YAiF/5670dPc9Hb5krlLmjmtu91EeONPxYwqD7/4J1WWD0HofD0JVgxL8opMNfsihk+3UeSy53Bs9+ks37xruaa49zON3Hw9pkouUVxAE+QuMU4TaHUi7ulNEYNDLy9fvqrWD+l5mxaztowDRpOUiHGvXoDeOZipaVqhHPloqNLovmrJkurFmXS3zjIQjynO8QfQ90z8oP9KpDJTV/khA0Eqh/YGoOlfTQdC32zu6h3t6B5q0QyND1kDQz+P0wVe/sMFBZ/HT5eZjW5jAwue2nO82AkW/1+yVPrbpCZ1+pO3S3aawrYd1NACG0YHHAmV1q+wOpFXduZAOgW1bdeHa/d4BnZJPNBcFxVW/0AXIdRvzJmgg4HOCpGkmQIieuNXPT0/g/a73PVFLM099Zw4EOe4nr11gfyBnr3zGBoHt2AXNzYt9g0PXsNJ8/tBcxfwFV2FzuY4o8ys3ew2mMPmdrXqi9+nwzZxKdQcRuNVSVvup/YGc6f4/NuGbO6ZUdf6g+bZXqdWNDvCBgtc2qC6Bix30C/Z+NCLwnrHphQbQqCcOt3bw6ix4D8z11yt7moPkdd9bhUBT6n7xtf9rfyCq7n83J3xLx093dD+91fewSavTP+cDhugXDGGQHs23xNgXeebeQw0wzzXYJj2h1en/eP6GtiVix5FHfECQawPlin+zO5CWjq5fWxK8tXMdF6/f6n0ypCYC4lri/E/5L4vYQ+6WIOECCGLu4vO0g9xD7KR+t7XPzsflNPUQ4dpS+krr/9HuQJTKqz9nCr20+gQ0tV80+CbM82z7F6/eOtc3OHKDNJhriXlxf0ky79GCv7nW228YKVyf1zeov71PcamdDwC/2EOwIaLIyMLC3/tKK/7G7kAwA4h6gS7kqPhdMOcrP0jNKwelqpMHmK4XtoRhUJgYSnHx3mwVDAYd61vO8gbRPzQW7ghOqBvlA8M1JAdmLfWBxcIEIyD+csUPUqn0p3YHgjdsU2l0dCDR2/MMglnlI4bK2kYeUGwPw0zoFz/D88nUNdtlzJ8g6V6uI4IZ7uAKw2NzCcxZPZHXWSpKMgLiJ1MMOgTGGJDO+3Qg8WlFRgLBOJRPVBIcbTzLCwwVhhkc4R2G+bb/MZWowvwGWlTRKXmAsSuuEMh1bOEOa0B8YqpgoYcM/sDI/a/wSTYCEiBX3HMcEHXnNTqQHdmlRkBIL/1kqQgSM/dC65krvMDYGobBJBZJZBEhcymthDuYgqX2/WU1sMI3Bd5fyL4+bGVAhtHv/OSKqw4D0q7u7KADyci3nLN2XhsC+SUKXlAwDHOjd6CpX6cf4SJUW65BE1zd3ddsKdzBNkLWhe+GT5ZPLF0lHZBerg7aZQQkILb2rMOAtKk0TXQgucU1rCOEXkHcdguKhZqjbbzA2BqGsQaIa7iDDsRLXAHz1kVzaisqd/pvA2S1jY4Dou5S0IEUlh/mVEmE8t6C9RAWmw4nW8/zAmNrGIYJhne4Q64ANGOXiLbCO/MtLyWid0AcRXQgfjJFreOAqLpK6UDQD6FXhss2Zt+2Z5VCKw8z+WXCMDaFO2S1sCYoC2Yt9ubdvg2Re42A/MlLL3EcELUmhw6kur6Zd4UJtKUeEVBSdZzXaOEThrE13OEeuRdmrwyxuV1oBtNHSEBsXbbjgJzVJNOB1DWctrniCAazhmgmHzml5gXGWhjGlnCHj4TdjCUdiGuJ+sYIiFyxw3FAxvPqBEpD87mXAkIa+eFiDxAn5UBz+2VeYJhhGFvCHf6xNeDimwLvLbSc6yd1ZSs/XOQJ6AvhOfRP6EAckk8nhNsYefXm05epSry3YANcvnoDsvZWGXLYbBW3dmyeaxDsLKziBaVN3fW8p/dB0zHVjabghPrndGFY214Xlg8fL7c9moztmecaCN5RiYZcCwI2fm5dGJGf3Uu2vPr7CzZQvWNPRR0sdt8I+ftr4Auea56YoNb4RUNVXTMvMMZCmFhgwHZcuKUM5qyJfKnRjSNi1mIPaDpzDtILxhbd4VowlufZP59OyLarNGvIdEXKT5aJqIZ9UzzmJH68VAilNcfgIx5vOjGB4D4xk0+0cDOTWQRhIhxf6UHKjCWL6Niea+lYeHwGBIh3wOcrfaCt4zLsKjoA2O6c0oOUDN5f5GnyzIC42tVEfnYv2fLqX44nkLCXkGTS2qAYqKw/BbGp+ZTittRIa+dw8UJCRhEoVZbDMBaByGphVeBO+GDRWOex9ky28zgt7Vc0QP2pNgqCMCIecFbILq6C851XKSCzlviYAHFIPp2QbWXJq89fF0pVZoFbCFTWnaR0CFpPp9o6KL1SfbTJ6uI4NgEwjy11t2wmmwOyIWIPfLaC2+Ju5jPJPurG7dnFEByTDBkFFaDsuASrfLdAXtkhSM0rhWXjq/hRH5nUwxH5dAMQlrw6qQxWfn2IDGqON4PvliSoO6WE4qojsNpPDDv3VFLQSANtLVEIZKpkliaCGM9pf74q7KWejZ2rrOYYJfzv+rSQW3oILnX3UHojJbeE0pukPZ+tDDYB4pB8ugEIS159tY/YqMGYNq090QK799cCjo4NoXLYvDULBOPvk+P8SxrAt5wKIHNW+UFmYQVU1p+EhMxCqk0Xu67DlWs3gehP0o4vVm00AeKQfDoBojx/9TfMnukWLDMrYASCjeh/8hTW+IthpfcmwMbYuox0MoFgRwqTpVF1jsvYDUebz0B0UjZ1bKlnuAkMhPLl11EmQILjj/6ayM/uJVte3Ssi0SyQdUFSyiRO3FlE2eloEqfv3g+oEEmv4lNOFhCcetGcRSXuFiyFLdu+gRb1BWraslTfuWvFJkAckk8nZNny6gFi6wsPcNjji5oXNNcpcxgVIRoB6ktd4LN5G2c4kwEERwP6UThCCisUVClOyoYQaQpgRtQSkPnrpUZAHJpPJ1CYefWN8gyLlSQNcA+TU548KnrsbZsSs0Cakgs7cvbBnsp6g6dLrmcrHQUER8HsFd6wPjiWmlI/W+4Fpy90UsbIog1h4M94G4utbnhskUecERCH5tMngBjn1cVbszkBIY3AMAuai2U1xyFMnk79duH6UEDfBZ1Kch1b6QggKPxDx1sgUJIMifh9lJt3QJ6+mzJM4tILLNaHWUfMnTCsPcfl0w1AGHn12BR+lcZGoFKvOd5CefSkUTgluIeZNxDwOnsB+XT5mIOIHjv6FThiJTtyIDQ2lXLycKrCkUvqxrVc7r3dCIhD8+kTQK6co1taW3cW8644NhB1SEZBOeD8jPs4XaBALDXeHkBwCsopqYbZLt6U1ZScW0KNCHT8ZGn51MiwpivM1XGlXxoDSG0HkZvDSmZePTWX29usbI3AHlqhOEEpz+XCSECFSq6LSc6lTE6yj+XLAkHg+Eodvu9Yf0oJ89cGUxYUTlFo/XV0dsP8dfzfbSd1xPCM0ZTlyHw6IdzGyKsfPNwCTqstr8QgFWYrcfrCIB0CKFc0UEBQl9zq7YPzmmtU7yV+i61AnF2DAHUFxp7QqkN9hT4S1gc7AZq36FvgH1sduRybtcQbPDeXGgFxaD7dAISRV8fpCxcueEXy/2wSs6GNpzsoywuBoCc89+tASNtdBsuEY6FyW4Ggl+0aIIGiA/UgTc0DF1EUFQ7B56Myxz9mXfjsO7luMklM4UhxaD7dAERtnFen6xNc48vnA2PMRuN0ggq1oFwBzaoLUHzwCBUfI9fZCgTvh6FzjMyirkD9heY3ua+t5bvzN1DZRqNpivZeiEPz6QYgjLw6HQhuK461wQph1Es1FkPdqGwx97AxLh1Qv6DQbAWyLWsvZdGFx2VQ0+MXX/ly9i3MwfrUJQiEjCmKBYzj8ukESPvYy5/fM0HQ93EJKebIbbVWUAi4VldxspVSukQotgJBqOhfYGQafQv0hcg9eZfObtSaXj+TVC0jSylTfO/Q5BQBgmVrh+a9NpXmJh0C23bh/sOAvZF3o8e/MoopUlTEJEVqKxD0xHu1A5yiAZbq+sEiIbiG5hopbpZRgR8KuOMXV/8JXWYO3z5zpudvlWpNCRsI+rFjjWeppaSWGmrtHHHkbAWCKQEMEFp7jqXzX6wOB69okyU+LHBqq0KkR3/pcADmHtCu6lrHjG/RgeA2vsyDaVichiw12to5W4FYu6+l8+/MX0/l4f+0nIdF+BPH/GWKEX+5IsicnCb1uPLs1d+1qY09eCYU3MeVJAvdbM/gTTaQj5f5gXtUsUUQOGX5y2uvBMbX/dekCt3awzo6On6GH6hhvvbGBIPvJOKia0u90ty5yQSCq91xlQqbjjAcw89oyBTpARmH37Ymnyk7f/ps15w2lXFEmAkF97/Zc5A162YOBh6fDCDvLfAAk3c8WKYrf1ltf0B83fwpEzSfB7ec7/mV8qymjg0E/RiuDf7Km/sHaBwNZLZLCAjF+y2PCoQjUzQ4NDXLR9hcr8UPKLeru4LaVJ2jdAjMbVxvhSF8XBhnaXQ4dIQ4u8FizwQwXQY6obSpaUqmeBEoV0gd9lYtV+G+zHVKteY/lWrNZSYI5n5JdYNhZYo5MI4YIR8u8QK38AKro8JLcuB5gKzmf15GFtPmt+3td/+yVa1JZ0Jg7uOyUUuLJuwNxFxQ0KC0x3WHLOMwzPWOHZg2ArVXRUK35j9qbLP+ygEGKfEVBeZIsRcQq0HBcRBhifUgzzgInpHZ4CSUjtpLDtPmPk4iyd3whL1QeqjF7ApEMmqq61thibtxfsIeQHC5p8emfVanqC2phyEivhjWBKaDnzgfBCKJftoI0l4VEYhiujYmFMHXQRmQnFMDrWcsf44DX+DBz3eQIOVLAXF2A1ymgy9yMqck+n6gvA7kGQpwD8+iYCCQEFkhCIQSrb3kMG3uIxBJT4XFFxo19PDJDqujpaCsjvpCqa1AuAYFI7bXg3jHfkP9EAb+YSdyEkkuTRtB2qsiTl4xu4TinUYNdgvdBQX7T1iFcuSkCiTb88xeR+/l9G389giXoGBMeh34bMk1qhsB4hebDU6imDJ7yWHa3Ecgkno6e8eCaFO2ScNj0yqgqf2SWYET3WKupEPgsx0cXw+S1CpwDc4wqdPXQemQkFkFi/ziEEjUtBGkvSri7LHltwJRDITKJ6Yt0gux9N6UCwfq222CwgcCuTZqRx2EyIpMQGBd3MO/gZLqJsgpOwJY53ne0TPDB2HCFIgkV1wjUiAmpZxVEK5BGZCar+D5/S2NRUVNAJAyUK6A2DQFuG+cUNz0jhEevxeON5+jOoanJBP1x9233nrrJ8y2zIh9J5EkBHtcdulh2F3eAG5hxjqFCCYiYUIo5qYp+nEibGtl2NZ6iE6p4NQZiqpOUKNDIJLKZoTw2Roh8JD+UiCU6FaGJUFj20WoP6GGICn7FDY2bXB7G9caCDwvTlGA92Z2xe21OQcO1E1Mly2nL4NrZAoIRNIXONWytWXGHHMSxshxlEQlF1HTAvojOE2hf0JGCClRscZnHoDmdttf+gySKyA6pRrWBmea3B+fE51cBqeUxgaFdGcZNTrQMpwxgjfXkDmiyL9zEknvI5SsknqDEt9f00qFKQgMeukXnQ+1x1SGa+nTFW6bGyER2+sgOHYPK4h1ITsha+8Rk3sWVB6HuV5S9M6fCESbHfcGlDkBTcVxJy/JQgTi7BML+w6dMgjlRMsF2LythFWAa0MyWQVoDog4pcas4sZpsv6E6acIK+pbYYGffEx3eEk2TIVspuyZc0UxOWNQZFB4oMEARanSUIJHAPRRQrbF28vgpNL487T0ERKaoICobWWsv8UpcGtWNbSwfH6wEuNnAfFEkVdMmWCm6sEuLtI/F4gkrWSkZBTVGqBgr1ccV4G/ZDerYEVROVBZpzRcT4BEba8xq7g9IrKg9CC7kYD+hmFkiCQXnNZu/OupksuUPhf1iUAoUSEU/ItIKoSTrRO9Hz9wgz2ajA56iUYAnkOjAIOC4mR2jxt/E5lYDA3Npp/paGy7BFvSisdHBdZBcu210RvmyM/3ifrFXKFUSaAsD95Kecj0jzMXVZ6C9Rt3sYIJiysyazrjtLer6AjgNMg0BHZXHoevQpPoMC689jAIpHkBAW8LRNICAgVLt02pkFd+1PA5wGON5wCFTx8llrZ9xflw6OhpIxAIubCyAdzFGTQQMTBXGF352k5TBAJbOVckcRF4xjykg1kRvA3ku8oALSCcnjILD7MGA+lwqGAlLTtZdaQN4rPL4auw7UYgnESSYYFQgisOZ2ZohE3IfI994bn5H5xE0myBUPJHOhjcXhqUCAFxORCdWgLh8UUQHFsIvuI8EEZmU1MaKu6U/BrI238UtuVVQVBCHiwPSjSCgPdxEkp+EAhjipx8t/wT3/q9ttfP9RH/DsFQvXhc6TMB8d3H3LjAK6bQWRRt///s8XUhRSl9L4mHwEt61EkoHeENQSR5Ptcr+qSTSOLj5C39+9dFbpPSTvRdnITSDwUiqb/AS5om8IpWCDwlzQKRtAP/nLykLV+KpHUCUUwm6gaBZ/THn62X/sWkVO7NQ95I4I0E3kjgjQTeSGAKJfD/zfE4stIaHK0AAAAASUVORK5CYII=;" vertex="1" parent="1">
                    <mxGeometry x="470" y="170" width="60" height="60" as="geometry"/>
                </mxCell>
                <mxCell id="20" style="edgeStyle=none;html=1;fontSize=11;" edge="1" parent="1" source="12" target="18">
                    <mxGeometry relative="1" as="geometry"/>
                </mxCell>
                <mxCell id="21" style="edgeStyle=none;html=1;entryX=0.46;entryY=0;entryDx=0;entryDy=0;entryPerimeter=0;fontSize=11;" edge="1" parent="1" source="12" target="17">
                    <mxGeometry relative="1" as="geometry"/>
                </mxCell>
                <mxCell id="22" style="edgeStyle=none;html=1;entryX=0.52;entryY=0;entryDx=0;entryDy=0;entryPerimeter=0;fontSize=11;" edge="1" parent="1" source="12" target="19">
                    <mxGeometry relative="1" as="geometry"/>
                </mxCell>
                <mxCell id="12" value="L1 -   Xex - Type 1  - Debian 12" style="shape=image;imageAspect=0;aspect=fixed;verticalLabelPosition=bottom;verticalAlign=top;fontSize=12;image=data:image/png,iVBORw0KGgoAAAANSUhEUgAAAEAAAABACAYAAACqaXHeAAAACXBIWXMAAAsTAAALEwEAmpwYAAAHXUlEQVR4nOVbW0wUVxgekNYbpVBJjRpjoMRbfAAVo/GSGDX6ogIKtkZaJRVNfEAQfSpy8RKtAt4evGFFKCQkXgE1GmMg1ESggFKIJlLRaFIpl4K3gsLf8x12NrMzuzuzyw4z1C/5XvbMOXu+f8///+c/c1YQ9MfXjGsZUxkLGX9n/JOxnbHHwnbLZ2grYNzNuMbSd0ginDGLsZ6xj5HcZJ9ljEzG2YOqwA34MSYzNgruC1Zjg+U7vhgkTZrwFWO60L+M9RIuJ74rjTFAf3mO4cX4PWOLMHjC5WxjTGD01lmrAiGMvw1g4p5mBeM3uiqWIJKxQ2dB7rCL8VsddfNllm0CoWrMFHRwic+F/vxstDit/JXxM0+KLzWBKFdZ4gkjINLnmkCMu8SqHZA7DAWfV+Mhd8VHm2DynuJ3ropHTv3HBBP3FKElWKt4+L2ZNjmeYrlFmyp+NMFk9eIPauJR2PxtgonqxVeM/s4MkGGCSerN3Y7Eo54fzJLWKKKCtHuekGyCyQ0Wk+wZoN6dwby8vCg8PJz27dtHxcXFVF1dTU1NTVRVVUUFBQW0bds2mjBhgtGC5WyQiw93R3hUVBQ9evSI1PDhwwdujODgYKOFSxkmNUCWK50DAgLo5s2bqsLleP/+PW3dutVo4SJttsh/aO04adIkevz4sY2wzs5OOnnyJEVHR9PMmTNpypQptGDBAtq+fTuVlZUpDHH48GGjxYO1onicvWs6uvb19aUHDx5YhfT29lJWVhb5+fk57Tdv3jyqr6+3McKuXbuMNgA0B8IAa7V2unDhAr18+ZISExPpypUrdPnyZSoqKrLy6NGj5O3tbbfvli1beB+R8r5Lly41wghRMECalodnzZpFfX19/NcrLS2lxsZGu36elpZm02/EiBF09uxZh3Hh3bt3FBcXZ9QqSIEBCrU8jF9NBH6xGTNm0Nu3bxWC4BbLly/nfSZPnkwPHz50KB4ZZPHixUa6QT4MUK32IHwfERzAKpg6dSr/fNOmTXaFtbS08Pzf1dXlUPzFixeppKSEu9Pq1aspOzubCgsL6fbt23Tp0iU6ceIET7PDhw+3zgPBFYFWSgTlUaNG0YYNG+jcuXM8O+Xl5fG+GgxQCQM0qz2ICYqorKy0acvJyXEo0h6wJ0hPT6cbN27Q/v37qa2tzenzWCVBQUH8u5Bp5IDhEJfsYf369WoGwAtZvjd2+mBSUpJ1UER9aRt8vKamRpP458+f84zg4+NDZ86csWnDGHAZe2n2+vXr/Ltqa2sVY8Ll7t27R62trYo2BFoVbah8hW41A2RmZloHhTHk7Zj469evnYqHiDFjxvDnsTzlQAYRlzUESQH3Gz16NF89UiCALlu2jI8ZERGhGBOupKLtX00GwOREyPP3sGHD+JLGL+EI8vQoF6iG9vZ2WrRokeJzxBFxzHXr1inajx8/rskAqi6QkpJiHfTIkSPWzwMDAzVtibF5GjlypLVfd3e3TfutW7d4mnXEadOm0c6dOxXjYl7imHv27FG0JyQkaHIB1SAYGRlpHRR+iM9QAT59+lRVvIjTp09bx5PHDKwIrBCsJsQGVJRSxsbG8l9bjpUrV1rHvHbtmqJ94cKFmoKgahpE8SP635MnTyg5OZl6enrsCkWafPPmjd02CMF4SJ8IiFI0NzfTs2fPFH2QLZCGX7x4oWibOHGidY7oL5+H2hZdsKRBTe/8rl69yut9BBZHQN5HEFuyZAl9/PhR0Y6ghS0vXKC8vJyOHTvG0+idO3eorq6Ou0pFRQX/tVNTU/kqEyyZ5sCBAzbcu3evdW4ozTdv3kzx8fFWisZWYR4MkKrFAKjuGhoaHIqHa4SEhDj1SQApDhsg4P79+3zyWr5fJ/4EA6xRexDWtLftFYEiCbsxaR/4NIKbPWAVwZXmzJljpHgQdx2cl8Pz58+nU6dOWZmbm8u3rCIzMjLI39/fbt+xY8fy3Vt+fr5NH3Du3LlGi+8VLOUwoPk8cPz48YoCp6OjgxsnJiaGQkNDafr06bRixQrasWMHj+JySNOXgawRJHD5SEz0Y1eAkyNkABOIB3+WGmC2O4OsWrXK4bmAFIj658+fp3HjxhktWspQQQa3jsXBsLAwHvVRfKBaRAV39+5dHi82btzIV4wJBEupOBYHPvkXI3hd9Em/GgPSTTBBvZniSDyAu7dGXn3Vm38xfunMAECcCSaqF2PVxAO4RlJhgsl6mmWCxisywP/tkhTuNmu+JCVC8xujIcAoV8WLyDTB5AfKg+6KB+Azv5hAhLvEpekB3xzHheOheFm6WPDgjXEfxhwTiNLKPE+KFwF3OGQCcc6Ig52Dggvpzh1ECOasGToZY3TUbQPk1HKdBblCbHKCdFVsB+Lf5l4NYOIDJSq7eEHnJa8G3L3dLWh4xeZBtgr9VZ1qYTOY8BX6Dxo03zhzgzi1SrR8l6mBS4jIGHVC//Gzu4LRF9fZcICpOMMbKsDZO/bieAuDnVkVY5PQ7zLdFrZZPkNbvuXZSEFybq8X/gNLaw1+8xBFBgAAAABJRU5ErkJggg==;" vertex="1" parent="1">
                    <mxGeometry x="375" y="290" width="64" height="64" as="geometry"/>
                </mxCell>
                <mxCell id="17" value="L2 - Guest - PV" style="sketch=0;aspect=fixed;html=1;points=[];align=center;image;fontSize=12;image=img/lib/mscae/VM_Linux.svg;" vertex="1" parent="1">
                    <mxGeometry x="270" y="440" width="50" height="46" as="geometry"/>
                </mxCell>
                <mxCell id="18" value="L2 - Guest - HVM" style="sketch=0;aspect=fixed;html=1;points=[];align=center;image;fontSize=12;image=img/lib/mscae/VirtualMachineWindows.svg;" vertex="1" parent="1">
                    <mxGeometry x="382" y="440" width="50" height="46" as="geometry"/>
                </mxCell>
                <mxCell id="19" value="L2 - Guest - HVM,PV" style="sketch=0;aspect=fixed;html=1;points=[];align=center;image;fontSize=12;image=img/lib/mscae/VM_Scale_Set.svg;" vertex="1" parent="1">
                    <mxGeometry x="500" y="430" width="50" height="50" as="geometry"/>
                </mxCell>
            </root>
        </mxGraphModel>
    </diagram>
</mxfile>